<?xml version="1.0" encoding="UTF-8"?>
<svg id="Camada_2" data-name="Camada 2" xmlns="http://www.w3.org/2000/svg" viewBox="0 0 737.59 880">
  <g id="Camada_1-2" data-name="Camada 1">
    <g>
      <path d="M223.7,363.5L21.18,493.6.43,624.69c-3.28,20.72,12.73,39.46,33.7,39.46h0c17.16,0,31.65-12.74,33.84-29.76l11.16-86.64,43.92-33.28-40.5,101.87,86.71,161.92c8.55,15.98,27.98,22.66,44.55,15.33h0c18.54-8.2,26.11-30.49,16.39-48.28l-69.09-126.51,30.68-79.78,145.31,142.15c15.34,15,36.27,22.88,57.69,21.7l55.98-3.07,142.38-6.14-70.99,111.81c-14.82,23.34-7.17,54.34,16.82,68.09h0c22.18,12.72,50.43,6.04,64.57-15.27l125.62-189.36c22.6-33.44-3.09-78.26-43.37-75.65l-204.34,13.24,235.18-445.83c12.77-24.21,1.96-54.16-23.33-64.64h0c-22.03-9.13-47.4-.1-58.72,20.89l-234.14,434.35-176.74-187.79Z"/>
      <circle cx="120.1" cy="302.57" r="92.5"/>
      <circle cx="520.51" cy="92.5" r="92.5"/>
    </g>
  </g>
</svg>