<?xml version="1.0" encoding="UTF-8"?>
<svg id="Camada_2" data-name="Camada 2" xmlns="http://www.w3.org/2000/svg" viewBox="0 0 523.3 880">
  <g id="Camada_1-2" data-name="Camada 1">
    <g id="oHub1w.tif">
      <g>
        <path d="M0,299.31c4.31-6.14,10.86-10.52,15.21-16.6,12.08-16.86,30.46-50.74,40.17-69.86,4.62-9.11,17.25-34.98,14.49-44.14-1.19-3.97-7.46-11.15-9.67-16.23C29.05,80.92,97.68-17.22,177.67,2.59c94.59,23.42,61.82,183.13-40.85,195.34-18.44,2.19-15.81-4.3-30.05,11.24-21.76,23.75-34.49,59.79-53.09,86.27l-.09,3.66,65.27,47.43,7.16.53c41.48-9.01,83.22-22.63,124.93-30.06,19.01-3.39,38.75-4.32,57.74-7.66,40.85-7.18,81.12-28.92,119.83-43.61,13.79-22.73,21.47-51.22,34.21-74.09,14.83-26.61,47.95-23.57,60.55,2.88v20.62l-35.27,96.23c-.6,2.11-2.16,3.51-3.42,5.18-10.86,14.41-74.34,36.75-94.48,46.59-2.97,1.45-12.18,5.2-12.99,7.79l31.33,225.97c7.54,30.05,40.97,90,36.95,116.92-16,42.36-19.93,99.14-37.15,139.87-17.45,41.28-76.73,26.93-74.16-13.8l24.87-125.72-32.77-69.51-89.15,215.11c-4.93,10.54-13.44,15.77-23.6,20.25h-20.66c-19.14-8.73-27.98-22.18-25.63-43.63l61.92-259.6-24.04-171.65-4.35-1.03-86.3,13.82c-17.79.22-41.73-27.05-55.05-39.51-15.28-14.3-40.79-36.46-53.37-51.53-2.39-2.87-3.33-6.19-5.98-8.65v-18.9ZM149.34,31.75c-50.47,6.56-89.31,89.03-47.79,124.12,34.94,29.52,81.81-7.52,95.03-42.64,13.83-36.75,0-87.62-47.23-81.49Z"/>
        <path d="M257.83,157.2c90.53-10.96,118.35,116.08,34.43,144.32-103.81,34.93-138.41-131.73-34.43-144.32Z"/>
        <path d="M455.31,76.91c38.87-.03,36.9,56.39,1.66,57.55-37.91,1.25-40.24-57.52-1.66-57.55Z"/>
      </g>
    </g>
  </g>
</svg>